<svg xmlns="http://www.w3.org/2000/svg" viewBox="0 0 800 420"><rect width="800" height="420" fill="#18191b"/><rect x="80" y="100" width="640" height="220" rx="18" fill="#168ed1"/><g fill="#eee"><rect x="105" y="125" width="39" height="25" rx="3"/><rect x="153" y="125" width="39" height="25" rx="3"/><rect x="201" y="125" width="39" height="25" rx="3"/><rect x="249" y="125" width="39" height="25" rx="3"/><rect x="297" y="125" width="39" height="25" rx="3"/><rect x="345" y="125" width="39" height="25" rx="3"/><rect x="393" y="125" width="39" height="25" rx="3"/><rect x="441" y="125" width="39" height="25" rx="3"/><rect x="489" y="125" width="39" height="25" rx="3"/><rect x="537" y="125" width="39" height="25" rx="3"/><rect x="585" y="125" width="39" height="25" rx="3"/><rect x="633" y="125" width="39" height="25" rx="3"/><rect x="105" y="159" width="39" height="25" rx="3"/><rect x="153" y="159" width="39" height="25" rx="3"/><rect x="201" y="159" width="39" height="25" rx="3"/><rect x="249" y="159" width="39" height="25" rx="3"/><rect x="297" y="159" width="39" height="25" rx="3"/><rect x="345" y="159" width="39" height="25" rx="3"/><rect x="393" y="159" width="39" height="25" rx="3"/><rect x="441" y="159" width="39" height="25" rx="3"/><rect x="489" y="159" width="39" height="25" rx="3"/><rect x="537" y="159" width="39" height="25" rx="3"/><rect x="585" y="159" width="39" height="25" rx="3"/><rect x="633" y="159" width="39" height="25" rx="3"/><rect x="105" y="193" width="39" height="25" rx="3"/><rect x="153" y="193" width="39" height="25" rx="3"/><rect x="201" y="193" width="39" height="25" rx="3"/><rect x="249" y="193" width="39" height="25" rx="3"/><rect x="297" y="193" width="39" height="25" rx="3"/><rect x="345" y="193" width="39" height="25" rx="3"/><rect x="393" y="193" width="39" height="25" rx="3"/><rect x="441" y="193" width="39" height="25" rx="3"/><rect x="489" y="193" width="39" height="25" rx="3"/><rect x="537" y="193" width="39" height="25" rx="3"/><rect x="585" y="193" width="39" height="25" rx="3"/><rect x="633" y="193" width="39" height="25" rx="3"/><rect x="105" y="227" width="39" height="25" rx="3"/><rect x="153" y="227" width="39" height="25" rx="3"/><rect x="201" y="227" width="39" height="25" rx="3"/><rect x="249" y="227" width="39" height="25" rx="3"/><rect x="297" y="227" width="39" height="25" rx="3"/><rect x="345" y="227" width="39" height="25" rx="3"/><rect x="393" y="227" width="39" height="25" rx="3"/><rect x="441" y="227" width="39" height="25" rx="3"/><rect x="489" y="227" width="39" height="25" rx="3"/><rect x="537" y="227" width="39" height="25" rx="3"/><rect x="585" y="227" width="39" height="25" rx="3"/><rect x="633" y="227" width="39" height="25" rx="3"/><rect x="105" y="261" width="39" height="25" rx="3"/><rect x="153" y="261" width="39" height="25" rx="3"/><rect x="201" y="261" width="39" height="25" rx="3"/><rect x="249" y="261" width="39" height="25" rx="3"/><rect x="297" y="261" width="39" height="25" rx="3"/><rect x="345" y="261" width="39" height="25" rx="3"/><rect x="393" y="261" width="39" height="25" rx="3"/><rect x="441" y="261" width="39" height="25" rx="3"/><rect x="489" y="261" width="39" height="25" rx="3"/><rect x="537" y="261" width="39" height="25" rx="3"/><rect x="585" y="261" width="39" height="25" rx="3"/><rect x="633" y="261" width="39" height="25" rx="3"/></g><text x="400" y="370" text-anchor="middle" fill="#f6e62d" font-family="Arial" font-size="24" font-weight="700">WRAITH W75</text></svg>